<?xml version="1.0" encoding="utf-8"?>
<!-- Generator: Adobe Illustrator 23.1.1, SVG Export Plug-In . SVG Version: 6.00 Build 0)  -->
<svg version="1.1" id="Layer_1" xmlns="http://www.w3.org/2000/svg" xmlns:xlink="http://www.w3.org/1999/xlink" x="0px" y="0px"
	 viewBox="0 0 20 20" style="enable-background:new 0 0 20 20;" xml:space="preserve">
<style type="text/css">
	.st0{fill-rule:evenodd;clip-rule:evenodd;fill:#8C8C8C;stroke:#414141;stroke-width:0.5589;stroke-miterlimit:10;}
	.st1{fill:#BFBFBF;stroke:#414141;stroke-width:0.5589;stroke-miterlimit:10;}
</style>
<path class="st0" d="M9.5,19.5c-5,0-9-4-9-8.8s4-8.8,9-8.8c0.8,0,1.5,0.1,2.1,0.3c0.1,0,0.1,0,0.2,0c0.5,0,1.2-0.3,2-0.7
	c1.1-0.4,2.2-1,3.3-1c0.7,0,1.3,0.2,1.7,0.7c1.2,1.2,0.6,3.2-0.1,4.9c-0.3,1-0.7,2-0.5,2.6c0.2,0.7,0.2,1.3,0.2,2
	C18.5,15.5,14.5,19.5,9.5,19.5z"/>
<path class="st1" d="M18.2,10.7c-4.9-0.1-8.7-3.8-8.8-8.6V1.8h0.3c0.7,0,1.4,0.1,2,0.2c0.1,0,0.1,0,0.2,0c0.5,0,1.3-0.3,2.1-0.7
	c1-0.4,2.2-0.9,3.2-0.9c0.7,0,1.3,0.3,1.7,0.7c1.2,1.2,0.6,3.1,0,4.9c-0.3,1.1-0.7,2-0.6,2.6c0.1,0.5,0.2,1,0.2,1.7v0.3H18.2z"/>
</svg>
