<?xml version="1.0" encoding="utf-8"?>
<svg version="1.1" id="SHAPES" xmlns="http://www.w3.org/2000/svg" xmlns:xlink="http://www.w3.org/1999/xlink" x="0px" y="0px" viewBox="0 0 100 100" style="enable-background:new 0 0 100 100;" xml:space="preserve">
<style type="text/css">
	.st0{fill:#000000;}
	.st1{fill:#616161;}
	.st2{fill:#9E9E9E;}
	.st3{fill:#808080;}
	.st4{fill:#FFFFFF;}
</style>
<circle id="circle" class="st1" cx="50" cy="50" r="47.5"/>
<path id="rightFiller" class="st2" d="M30,36.6l40,26l-2,24l1.8,4.2C79.4,83,85.5,71.2,85.5,58c0-23.4-19-42.4-42.4-42.4
	c-4.3,0-8.5,0.6-12.4,1.9L30,36.6z"/>
<path id="leftFiller" class="st3" d="M67.1,59.7L30.3,38.2L30,19.8l12.8-8.6L46.6,3c-7.2,0.3-14.2,2.7-20.1,7.4
	C10,23.2,7.8,48.4,21.7,66.5c10.9,14.2,28.4,19.9,43.4,15.6L67.1,59.7z"/>
<path id="S" class="st4" d="M27,72.4c0,0,9.9,9.7,22.9,9.7c7,0,13.3-3.6,13.3-11.1c0-16.4-43.2-13.6-43.2-41.7
	C19.9,14,33.1,2.6,50.6,2.6c18.1,0,27.4,9.8,27.4,9.8L70.8,26c0,0-8.8-8-20.3-8c-7.7,0-13.8,4.5-13.8,11c0,16.3,43.1,12.3,43.1,41.6
	c0,14.6-11.1,26.9-30.2,26.9C29.2,97.4,18,84.9,18,84.9L27,72.4z"/>
</svg>
